<?xml version="1.0" encoding="UTF-8" standalone="no"?> <svg id="Layer_1" data-name="Layer 1" xmlns="http://www.w3.org/2000/svg" xmlns:xlink="http://www.w3.org/1999/xlink" viewBox="0 0 64 64"><defs><style>.cls-1{fill:url(#linear-gradient);}.cls-2{fill:url(#linear-gradient-2);}.cls-3{fill:url(#linear-gradient-3);}</style><linearGradient id="linear-gradient" x1="13.89" y1="4.14" x2="50.39" y2="60.3" gradientUnits="userSpaceOnUse"><stop offset="0" stop-color="#15b3ff"/><stop offset="1" stop-color="#e200e9"/></linearGradient><linearGradient id="linear-gradient-2" x1="14.05" y1="4.03" x2="50.55" y2="60.2" xlink:href="#linear-gradient"/><linearGradient id="linear-gradient-3" x1="17.56" y1="1.75" x2="54.06" y2="57.92" xlink:href="#linear-gradient"/></defs><title>Bookmark_2</title><path class="cls-1" d="M50,3H14a1,1,0,0,0-1,1V60a1,1,0,0,0,.49.86,1,1,0,0,0,1,0L32,51.14l17.51,9.73a1,1,0,0,0,1,0A1,1,0,0,0,51,60V4A1,1,0,0,0,50,3ZM49,58.3,32.49,49.13a1,1,0,0,0-1,0L15,58.3V5H49Z"/><path class="cls-2" d="M15,5V58.3l16.51-9.17a1,1,0,0,1,1,0L49,58.3V5ZM43.54,27.53A5,5,0,0,1,40,29H37v3a5,5,0,0,1-10,0V29H24a5,5,0,0,1,0-10h3V16a5,5,0,0,1,10,0v3h3A5,5,0,0,1,43.54,27.53Z"/><path class="cls-3" d="M43,24a3,3,0,0,1-3,3H36a1,1,0,0,0-1,1v4a3,3,0,1,1-6,0V28a1,1,0,0,0-1-1H24a3,3,0,1,1,0-6h4a1,1,0,0,0,1-1V16a3,3,0,1,1,6,0v4a1,1,0,0,0,1,1h4A3,3,0,0,1,43,24Z"/><path class="cls-3" d="M43,24a3,3,0,0,1-3,3H36a1,1,0,0,0-1,1v4a3,3,0,1,1-6,0V28a1,1,0,0,0-1-1H24a3,3,0,1,1,0-6h4a1,1,0,0,0,1-1V16a3,3,0,1,1,6,0v4a1,1,0,0,0,1,1h4A3,3,0,0,1,43,24Z"/></svg>