<?xml version="1.0" encoding="UTF-8" standalone="no"?> <svg xmlns="http://www.w3.org/2000/svg" viewBox="0 0 64 64"><g id="Layer_85" data-name="Layer 85"><path d="M62,12.49A10.51,10.51,0,0,0,51.51,2c-12.63.35-14.35,17.87-2.18,20.76A9,9,0,0,1,40.49,30h-17a9,9,0,0,1-8.84-7.24A10.53,10.53,0,0,0,23,12.49c-.58-13.92-20.42-13.91-21,0a10.5,10.5,0,0,0,8.64,10.32A13,13,0,0,0,23.51,34H30v7.21a10.51,10.51,0,0,0-8.49,10.3c.57,13.92,20.41,13.91,21,0A10.51,10.51,0,0,0,34,41.21V34h6.49A13,13,0,0,0,53.36,22.81,10.5,10.5,0,0,0,62,12.49Zm-56,0A6.5,6.5,0,0,1,12.49,6c8.6.31,8.59,12.68,0,13A6.5,6.5,0,0,1,6,12.49Zm32.49,39A6.5,6.5,0,0,1,32,58c-8.59-.31-8.59-12.68,0-13A6.5,6.5,0,0,1,38.49,51.51ZM51.51,19a6.51,6.51,0,0,1-6.5-6.5c.31-8.59,12.69-8.59,13,0A6.5,6.5,0,0,1,51.51,19Z"/></g></svg>